<svg viewBox="0 0 32 32" xmlns="http://www.w3.org/2000/svg">
  <defs>
    <!-- Main gradient matching the header logo -->
    <linearGradient id="mainGradient" x1="0%" y1="0%" x2="100%" y2="100%">
      <stop offset="0%" style="stop-color:#34D399;stop-opacity:1" />
      <stop offset="50%" style="stop-color:#059669;stop-opacity:1" />
      <stop offset="100%" style="stop-color:#0D9488;stop-opacity:1" />
    </linearGradient>
    
    <!-- Subtle highlight gradient -->
    <linearGradient id="highlightGradient" x1="0%" y1="0%" x2="100%" y2="100%">
      <stop offset="0%" style="stop-color:rgba(255,255,255,0.3);stop-opacity:1" />
      <stop offset="50%" style="stop-color:rgba(255,255,255,0.1);stop-opacity:1" />
      <stop offset="100%" style="stop-color:rgba(255,255,255,0.2);stop-opacity:1" />
    </linearGradient>
    
    <!-- Shadow filter -->
    <filter id="shadow" x="-20%" y="-20%" width="140%" height="140%">
      <feDropShadow dx="1" dy="1" stdDeviation="1" flood-color="#059669" flood-opacity="0.3"/>
    </filter>
  </defs>
  
  <!-- Background circle matching the header logo style -->
  <circle cx="16" cy="16" r="14" 
          fill="url(#mainGradient)" 
          filter="url(#shadow)"
          stroke="rgba(255,255,255,0.3)" 
          stroke-width="0.5"/>
  
  <!-- Highlight overlay -->
  <circle cx="16" cy="16" r="14" 
          fill="url(#highlightGradient)" 
          opacity="0.6"/>
  
  <!-- Graduation cap icon (simplified for favicon) -->
  <!-- Cap base -->
  <path d="M8 14 L16 17 L24 14 L24 10 C24 9 20 8 16 8 C12 8 8 9 8 10 Z" 
        fill="white" opacity="0.9"/>
  
  <!-- Cap board -->
  <path d="M6 16 L16 19 L26 16 L24 15 L16 18 L8 15 Z" 
        fill="white" opacity="0.95"/>
  
  <!-- Tassel -->
  <circle cx="22" cy="18" r="1" fill="white" opacity="0.8"/>
  <path d="M22 18 L23 20 M22 18 L21 20" 
        stroke="white" stroke-width="0.8" opacity="0.8" fill="none"/>
</svg>